<?xml version="1.0" encoding="iso-8859-1"?>
<!-- Uploaded to: SVG Repo, www.svgrepo.com, Generator: SVG Repo Mixer Tools -->
<svg height="800px" width="800px" version="1.1" id="Layer_1" xmlns="http://www.w3.org/2000/svg" xmlns:xlink="http://www.w3.org/1999/xlink" 
	 viewBox="0 0 512 512" xml:space="preserve">
<path style="fill:#0C7ED3;" d="M298.961,118.544h-26.727c-5.143,0-9.654,3.329-11.034,8.141l-8.38,29.213h65.556l-8.38-29.213
	C308.617,121.872,304.104,118.544,298.961,118.544z"/>
<polygon style="opacity:0.08;enable-background:new    ;" points="315.132,144.588 256.064,144.588 252.82,155.897 318.376,155.897 
	"/>
<path style="fill:#F0EFEF;" d="M493.777,303.943L493.777,303.943l-5.468-41.16c-1.464-11.017-10.859-19.248-21.973-19.248h-63.566
	c-5.219,0-10.013-2.873-12.474-7.473l-31.875-59.59c-6.774-12.666-19.973-20.575-34.337-20.575H178.659
	c-14.364,0-27.562,7.908-34.337,20.575l-31.874,59.591c-2.461,4.6-7.256,7.473-12.474,7.473H45.68
	c-11.114,0-20.51,8.231-21.973,19.248l-5.468,41.16h-0.008c-9.341,0-11.109,35.792-0.656,35.792h476.857
	C504.886,339.735,503.118,303.943,493.777,303.943z"/>
<g>
	<path style="fill:#333E48;" d="M99.264,243.537H45.68c-11.114,0-20.51,8.231-21.973,19.248l-5.468,41.16h-0.008
		c-9.341,0-11.109,35.792-0.656,35.792h120.239L99.264,243.537z"/>
	<path style="fill:#333E48;" d="M493.777,303.943l-5.468-41.16c-1.464-11.017-10.859-19.248-21.973-19.248h-53.599l-38.551,96.2
		h120.247C504.886,339.735,503.118,303.943,493.777,303.943z"/>
</g>
<g>
	<path style="fill:#FF495C;" d="M490.851,281.914H467.17c-5.237,0-9.484,4.245-9.484,9.482v3.064c0,5.237,4.246,9.482,9.484,9.482
		h26.608L490.851,281.914z"/>
	<path style="fill:#FF495C;" d="M36.743,281.914H21.171l-2.932,22.029h18.505c5.238,0,9.484-4.245,9.484-9.482v-3.064
		C46.227,286.16,41.981,281.914,36.743,281.914z"/>
</g>
<path style="opacity:0.1;enable-background:new    ;" d="M171.817,339.735c0-33.696-27.316-61.012-61.012-61.012
	s-61.012,27.316-61.012,61.012H171.817z"/>
<path style="opacity:0.1;enable-background:new    ;" d="M452.943,339.735c0-33.696-27.316-61.012-61.012-61.012
	c-33.697,0-61.012,27.316-61.012,61.012H452.943z"/>
<circle style="fill:#333E48;" cx="110.808" cy="339.732" r="53.724"/>
<circle style="fill:#C3C6C8;" cx="110.808" cy="339.732" r="23.964"/>
<g>
	<path style="fill:#57C9E8;" d="M361.894,182.966h-17.945c-4.431,0-7.311,4.665-5.326,8.627l19.589,39.101
		c1.649,3.291,5.015,5.37,8.696,5.37h23.388L361.894,182.966z"/>
	<path style="fill:#57C9E8;" d="M242.098,228.639v-38.252c0-4.099,3.324-7.423,7.423-7.423h51.013c3.682,0,7.047,2.078,8.696,5.37
		l19.589,39.101c1.984,3.962-0.895,8.627-5.326,8.627h-73.972C245.422,236.064,242.098,232.74,242.098,228.639z"/>
	<path style="fill:#57C9E8;" d="M211.962,228.639v-38.252c0-4.099-3.324-7.423-7.423-7.423h-29.57c-3.682,0-7.048,2.078-8.696,5.37
		l-19.589,39.101c-1.984,3.962,0.896,8.627,5.327,8.627h52.529C208.638,236.064,211.962,232.74,211.962,228.639z"/>
</g>
<circle style="fill:#333E48;" cx="391.932" cy="339.732" r="53.724"/>
<circle style="fill:#C3C6C8;" cx="391.932" cy="339.732" r="23.964"/>
<g>
	<path style="opacity:0.2;fill:#FFFFFF;enable-background:new    ;" d="M369.484,197.153l-18.704,18.705l7.432,14.834
		c1.649,3.291,5.015,5.37,8.696,5.37h23.388L369.484,197.153z"/>
	<path style="opacity:0.2;fill:#FFFFFF;enable-background:new    ;" d="M204.539,182.966h-6.191l-50.93,50.93
		c1.068,1.3,2.685,2.168,4.592,2.168h32.402l27.55-27.55v-18.124C211.962,186.289,208.638,182.966,204.539,182.966z"/>
	<path style="opacity:0.2;fill:#FFFFFF;enable-background:new    ;" d="M309.231,188.336c-1.649-3.292-5.015-5.37-8.696-5.37H286.38
		l-44.283,44.283v1.392c0,4.099,3.324,7.423,7.423,7.423h37.034l31.037-31.038L309.231,188.336z"/>
</g>
<path style="fill:#333E48;" d="M312.807,244.059h16.562c2.877,0,5.209-2.333,5.209-5.21v-12.295c0-2.877-2.333-5.21-5.209-5.21
	h-16.562c-6.272,0-11.357,5.085-11.357,11.357l0,0C301.449,238.973,306.534,244.059,312.807,244.059z"/>
<path style="fill:#FFD13F;" d="M237.023,311.335l-16.552,5.886c-2.099,0.747-4.292-0.847-4.23-3.073l0.483-17.56l-10.712-13.923
	c-1.358-1.765-0.521-4.343,1.616-4.972l16.85-4.967l9.931-14.491c1.259-1.836,3.97-1.836,5.229,0l9.931,14.491l16.85,4.967
	c2.137,0.63,2.974,3.208,1.616,4.972l-10.713,13.923l0.483,17.56c0.062,2.226-2.132,3.82-4.23,3.073L237.023,311.335z"/>
<g>
	<path style="fill:#C3C6C8;" d="M470.914,344.956h37.341c2.068,0,3.745-1.676,3.745-3.744v-33.524c0-2.067-1.677-3.744-3.745-3.744
		h-37.341c-2.067,0-3.744,1.677-3.744,3.744v33.524C467.169,343.28,468.846,344.956,470.914,344.956z"/>
	<path style="fill:#C3C6C8;" d="M34.562,344.956H3.745c-2.068,0-3.745-1.676-3.745-3.744v-33.524c0-2.067,1.677-3.744,3.745-3.744
		h30.818c2.068,0,3.745,1.677,3.745,3.744v33.524C38.306,343.28,36.63,344.956,34.562,344.956z"/>
</g>
</svg>